# xmcd CD database file
#
# Track frame offsets:
#	150
#	39545
#	83649
#	126702
#	169643
#	210311
#
# Disc length: 3365 seconds
#
# Revision: 5
# Processed by: cddbd v1.5.2PL0 Copyright (c) Steve Scherf et al.
# Submitted via: CDex 1.81
#
DISCID=490d2306
DTITLE=Manhattan Jazz Orchestra - A Night in Tunisia
DYEAR=1993
DGENRE=Jazz
TTITLE0=Four
TTITLE1=A Night In Tunisia
TTITLE2=Take The "A" Train
TTITLE3=All Blues
TTITLE4=Harry's Jump
TTITLE5=Here's That Rainy Day
EXTD=YEAR: 1993
EXTT0=
EXTT1=
EXTT2=
EXTT3=
EXTT4=
EXTT5=
PLAYORDER=
